{
  "accessors": [
    {
      "bufferView": 2,
      "componentType": 5126,
      "count": 3197,
      "max": [
        3.2465898990631104,
        1.3824080228805542,
        3.425412893295288
      ],
      "min": [
        -3.24094295501709,
        -3.093111038208008,
        -3.1365699768066406
      ],
      "type": "VEC3"
    },
    {
      "bufferView": 2,
      "byteOffset": 38364,
      "componentType": 5126,
      "count": 3197,
      "max": [
        0.999932050704956,
        0.9991199374198914,
        0.9980533719062805
      ],
      "min": [
        -0.999932050704956,
        -0.9999189972877502,
        -0.9967063665390015
      ],
      "type": "VEC3"
    },
    {
      "bufferView": 3,
      "componentType": 5126,
      "count": 3197,
      "max": [
        0.9961223006248474,
        0.9995436668395996,
        0.9997899532318115,
        1.0
      ],
      "min": [
        -0.9997854828834534,
        -0.9995284080505371,
        -0.9995507597923279,
        -1.0
      ],
      "type": "VEC4"
    },
    {
      "bufferView": 1,
      "componentType": 5126,
      "count": 3197,
      "max": [
        0.9900000095367432,
        0.9900000095367432
      ],
      "min": [
        0.009999999776482582,
        0.03584900125861168
      ],
      "type": "VEC2"
    },
    {
      "bufferView": 0,
      "componentType": 5125,
      "count": 15306,
      "type": "SCALAR"
    }
  ],
  "asset": {
    "extras": {
      "author": "Polenta (https://sketchfab.com/kln)",
      "license": "CC-BY-4.0 (http://creativecommons.org/licenses/by/4.0/)",
      "source": "https://sketchfab.com/3d-models/red-dragon-bust-92fefac5f4114b9580fce671db6c7080",
      "title": "Red Dragon bust"
    },
    "generator": "Sketchfab-12.67.0",
    "version": "2.0"
  },
  "bufferViews": [
    {
      "buffer": 0,
      "byteLength": 61224,
      "name": "floatBufferViews",
      "target": 34963
    },
    {
      "buffer": 0,
      "byteLength": 25576,
      "byteOffset": 61224,
      "byteStride": 8,
      "name": "floatBufferViews",
      "target": 34962
    },
    {
      "buffer": 0,
      "byteLength": 76728,
      "byteOffset": 86800,
      "byteStride": 12,
      "name": "floatBufferViews",
      "target": 34962
    },
    {
      "buffer": 0,
      "byteLength": 51152,
      "byteOffset": 163528,
      "byteStride": 16,
      "name": "floatBufferViews",
      "target": 34962
    }
  ],
  "buffers": [
    {
      "byteLength": 214680,
      "uri": "scene.bin"
    }
  ],
  "images": [
    {
      "uri": "textures/Dragontrophy_LOW_Default1_baseColor.png"
    },
    {
      "uri": "textures/Dragontrophy_LOW_Default1_metallicRoughness.png"
    },
    {
      "uri": "textures/Dragontrophy_LOW_Default1_normal.png"
    }
  ],
  "materials": [
    {
      "doubleSided": true,
      "name": "Dragontrophy_LOW_Default1",
      "normalTexture": {
        "index": 2
      },
      "occlusionTexture": {
        "index": 1,
        "strength": 0.745617378
      },
      "pbrMetallicRoughness": {
        "baseColorTexture": {
          "index": 0
        },
        "metallicFactor": 0.0,
        "metallicRoughnessTexture": {
          "index": 1
        }
      }
    }
  ],
  "meshes": [
    {
      "name": "Dragontrophy_LOW_RetopoGroup1_Dragontrophy_LOW_Default1_0",
      "primitives": [
        {
          "attributes": {
            "NORMAL": 1,
            "POSITION": 0,
            "TANGENT": 2,
            "TEXCOORD_0": 3
          },
          "indices": 4,
          "material": 0,
          "mode": 4
        }
      ]
    }
  ],
  "nodes": [
    {
      "children": [
        1
      ],
      "matrix": [
        1.0,
        0.0,
        0.0,
        0.0,
        0.0,
        2.220446049250313e-16,
        -1.0,
        0.0,
        0.0,
        1.0,
        2.220446049250313e-16,
        0.0,
        0.0,
        0.0,
        0.0,
        1.0
      ],
      "name": "Sketchfab_model"
    },
    {
      "children": [
        2
      ],
      "matrix": [
        1.0,
        0.0,
        0.0,
        0.0,
        0.0,
        0.0,
        1.0,
        0.0,
        0.0,
        -1.0,
        0.0,
        0.0,
        0.0,
        0.0,
        0.0,
        1.0
      ],
      "name": "dragontrophy.fbx"
    },
    {
      "children": [
        3
      ],
      "name": "RootNode"
    },
    {
      "children": [
        4
      ],
      "name": "Dragontrophy_LOW_RetopoGroup1"
    },
    {
      "mesh": 0,
      "name": "Dragontrophy_LOW_RetopoGroup1_Dragontrophy_LOW_Default1_0"
    }
  ],
  "samplers": [
    {
      "magFilter": 9729,
      "minFilter": 9987,
      "wrapS": 10497,
      "wrapT": 10497
    }
  ],
  "scene": 0,
  "scenes": [
    {
      "name": "Sketchfab_Scene",
      "nodes": [
        0
      ]
    }
  ],
  "textures": [
    {
      "sampler": 0,
      "source": 0
    },
    {
      "sampler": 0,
      "source": 1
    },
    {
      "sampler": 0,
      "source": 2
    }
  ]
}
